<svg xmlns="http://www.w3.org/2000/svg" viewBox="0 0 900 1200" width="900" height="1200" role="img" aria-label="Charcoal Wash and Wear Kurta Shalwar">
  
  <defs>
    <linearGradient id="bg" x1="0" y1="0" x2="0.6" y2="1">
      <stop offset="0%" stop-color="#0b1119"/>
      <stop offset="100%" stop-color="#05080d"/>
    </linearGradient>
    <radialGradient id="glow" cx="50%" cy="78%" r="62%">
      <stop offset="0%" stop-color="#1e90ff" stop-opacity="0.30"/>
      <stop offset="55%" stop-color="#1e90ff" stop-opacity="0.07"/>
      <stop offset="100%" stop-color="#1e90ff" stop-opacity="0"/>
    </radialGradient>
    <linearGradient id="cloth" x1="0.15" y1="0" x2="0.85" y2="1">
      <stop offset="0%" stop-color="#696e75"/>
      <stop offset="46%" stop-color="#3a4049"/>
      <stop offset="100%" stop-color="#25292f"/>
    </linearGradient>
    <linearGradient id="clothAlt" x1="0" y1="0" x2="1" y2="0.4">
      <stop offset="0%" stop-color="#30343c"/>
      <stop offset="100%" stop-color="#4e535b"/>
    </linearGradient>
    <linearGradient id="sheen" x1="0" y1="0" x2="1" y2="1">
      <stop offset="0%" stop-color="#ffffff" stop-opacity="0.16"/>
      <stop offset="45%" stop-color="#ffffff" stop-opacity="0.02"/>
      <stop offset="100%" stop-color="#000000" stop-opacity="0.16"/>
    </linearGradient>
    <filter id="soft" x="-25%" y="-25%" width="150%" height="150%">
      <feDropShadow dx="0" dy="26" stdDeviation="30" flood-color="#000000" flood-opacity="0.55"/>
    </filter>
    <pattern id="grid" width="60" height="60" patternUnits="userSpaceOnUse">
      <path d="M60 0 L0 0 0 60" fill="none" stroke="#1e90ff" stroke-opacity="0.05" stroke-width="1"/>
    </pattern>
  </defs>
  
  <rect width="900" height="1200" fill="url(#bg)"/>
  
  <rect width="900" height="1200" fill="url(#glow)"/>
  <ellipse cx="450" cy="1085" rx="290" ry="46" fill="#000000" opacity="0.5"/>
  <g>
  <g filter="url(#soft)">
    <path d="M344 706 L556 706 L588 1078 L470 1078 L450 866 L430 1078 L312 1078 Z"
      fill="url(#clothAlt)" stroke="rgba(255,255,255,0.16)" stroke-width="3" stroke-linejoin="round"/>
    <path d="M366 232 L302 252 L234 324 L262 588 L336 576 L330 800 L570 800 L564 576 L638 588 L666 324 L598 252 L534 232 L450 306 Z"
      fill="url(#cloth)" stroke="rgba(255,255,255,0.16)" stroke-width="3" stroke-linejoin="round"/>
    <path d="M366 232 L302 252 L234 324 L262 588 L336 576 L330 800 L570 800 L564 576 L638 588 L666 324 L598 252 L534 232 L450 306 Z"
      fill="url(#sheen)"/>
    <path d="M382 238 Q450 292 518 238 L512 210 Q450 244 388 210 Z" fill="url(#clothAlt)" stroke="rgba(255,255,255,0.16)" stroke-width="3" stroke-linejoin="round"/>
    <line x1="450" y1="306" x2="450" y2="520" stroke="rgba(0,0,0,0.35)" stroke-width="4"/>
    <circle cx="450" cy="352" r="8" fill="rgba(255,255,255,0.6)"/><circle cx="450" cy="412" r="8" fill="rgba(255,255,255,0.6)"/><circle cx="450" cy="472" r="8" fill="rgba(255,255,255,0.6)"/>
    <path d="M330 690 L570 690" stroke="rgba(255,255,255,0.10)" stroke-width="4"/>
    <path d="M300 620 Q312 720 306 792" fill="none" stroke="rgba(255,255,255,0.10)" stroke-width="6"/>
  </g></g>
</svg>