<svg xmlns="http://www.w3.org/2000/svg" viewBox="0 0 900 1200" width="900" height="1200" role="img" aria-label="Cuddly Teddy Bear Soft Toy">
  
  <defs>
    <linearGradient id="bg" x1="0" y1="0" x2="0.6" y2="1">
      <stop offset="0%" stop-color="#0a1017"/>
      <stop offset="100%" stop-color="#04070c"/>
    </linearGradient>
    <radialGradient id="glow" cx="50%" cy="78%" r="62%">
      <stop offset="0%" stop-color="#1e90ff" stop-opacity="0.30"/>
      <stop offset="55%" stop-color="#1e90ff" stop-opacity="0.07"/>
      <stop offset="100%" stop-color="#1e90ff" stop-opacity="0"/>
    </radialGradient>
    <linearGradient id="cloth" x1="0.15" y1="0" x2="0.85" y2="1">
      <stop offset="0%" stop-color="#eac7cd"/>
      <stop offset="46%" stop-color="#e3b5bd"/>
      <stop offset="100%" stop-color="#917479"/>
    </linearGradient>
    <linearGradient id="clothAlt" x1="0" y1="0" x2="1" y2="0.4">
      <stop offset="0%" stop-color="#ba949b"/>
      <stop offset="100%" stop-color="#e6bcc4"/>
    </linearGradient>
    <linearGradient id="sheen" x1="0" y1="0" x2="1" y2="1">
      <stop offset="0%" stop-color="#ffffff" stop-opacity="0.16"/>
      <stop offset="45%" stop-color="#ffffff" stop-opacity="0.02"/>
      <stop offset="100%" stop-color="#000000" stop-opacity="0.16"/>
    </linearGradient>
    <filter id="soft" x="-25%" y="-25%" width="150%" height="150%">
      <feDropShadow dx="0" dy="26" stdDeviation="30" flood-color="#000000" flood-opacity="0.55"/>
    </filter>
    <pattern id="grid" width="60" height="60" patternUnits="userSpaceOnUse">
      <path d="M60 0 L0 0 0 60" fill="none" stroke="#1e90ff" stroke-opacity="0.05" stroke-width="1"/>
    </pattern>
  </defs>
  
  <rect width="900" height="1200" fill="url(#bg)"/>
  
  <rect width="900" height="1200" fill="url(#glow)"/>
  <ellipse cx="450" cy="1085" rx="290" ry="46" fill="#000000" opacity="0.5"/>
  <g transform="translate(450 640) scale(1.16) translate(-450 -600)">
  <g filter="url(#soft)">
    <ellipse cx="330" cy="760" rx="86" ry="132" fill="#ab898f" transform="rotate(-16 330 760)"/>
    <ellipse cx="570" cy="760" rx="86" ry="132" fill="#ab898f" transform="rotate(16 570 760)"/>
    <ellipse cx="450" cy="740" rx="178" ry="196" fill="url(#cloth)"/>
    <ellipse cx="450" cy="740" rx="178" ry="196" fill="url(#sheen)"/>
    <ellipse cx="450" cy="792" rx="106" ry="118" fill="#edd0d5" opacity="0.35"/>
    <circle cx="336" cy="382" r="62" fill="#a38288"/>
    <circle cx="564" cy="382" r="62" fill="#a38288"/>
    <circle cx="336" cy="382" r="34" fill="#edd0d5" opacity="0.6"/>
    <circle cx="564" cy="382" r="34" fill="#edd0d5" opacity="0.6"/>
    <circle cx="450" cy="452" r="152" fill="url(#cloth)"/>
    <circle cx="450" cy="452" r="152" fill="url(#sheen)"/>
    <ellipse cx="450" cy="500" rx="76" ry="58" fill="#edd0d5"/>
    <ellipse cx="450" cy="470" rx="26" ry="19" fill="#171a20"/>
    <path d="M450 489 v20 M450 509 q-22 20 -40 2 M450 509 q22 20 40 2" fill="none" stroke="#171a20" stroke-width="7" stroke-linecap="round"/>
    <circle cx="404" cy="418" r="15" fill="#171a20"/>
    <circle cx="496" cy="418" r="15" fill="#171a20"/>
    <circle cx="399" cy="412" r="5" fill="#ffffff" opacity="0.85"/>
    <circle cx="491" cy="412" r="5" fill="#ffffff" opacity="0.85"/>
    <ellipse cx="384" cy="946" rx="74" ry="52" fill="#9b7c81"/>
    <ellipse cx="516" cy="946" rx="74" ry="52" fill="#9b7c81"/>
    <ellipse cx="384" cy="946" rx="40" ry="27" fill="#edd0d5" opacity="0.55"/>
    <ellipse cx="516" cy="946" rx="40" ry="27" fill="#edd0d5" opacity="0.55"/>
  </g></g>
</svg>