<svg xmlns="http://www.w3.org/2000/svg" viewBox="0 0 900 1200" width="900" height="1200" role="img" aria-label="Shape Sorter Activity Toy">
  
  <defs>
    <linearGradient id="bg" x1="0" y1="0" x2="0.6" y2="1">
      <stop offset="0%" stop-color="#101826"/>
      <stop offset="100%" stop-color="#070b12"/>
    </linearGradient>
    <radialGradient id="glow" cx="50%" cy="30%" r="62%">
      <stop offset="0%" stop-color="#1e90ff" stop-opacity="0.30"/>
      <stop offset="55%" stop-color="#1e90ff" stop-opacity="0.07"/>
      <stop offset="100%" stop-color="#1e90ff" stop-opacity="0"/>
    </radialGradient>
    <linearGradient id="cloth" x1="0.15" y1="0" x2="0.85" y2="1">
      <stop offset="0%" stop-color="#dcbb6b"/>
      <stop offset="46%" stop-color="#d1a53c"/>
      <stop offset="100%" stop-color="#866a26"/>
    </linearGradient>
    <linearGradient id="clothAlt" x1="0" y1="0" x2="1" y2="0.4">
      <stop offset="0%" stop-color="#ab8731"/>
      <stop offset="100%" stop-color="#d6ae50"/>
    </linearGradient>
    <linearGradient id="sheen" x1="0" y1="0" x2="1" y2="1">
      <stop offset="0%" stop-color="#ffffff" stop-opacity="0.16"/>
      <stop offset="45%" stop-color="#ffffff" stop-opacity="0.02"/>
      <stop offset="100%" stop-color="#000000" stop-opacity="0.16"/>
    </linearGradient>
    <filter id="soft" x="-25%" y="-25%" width="150%" height="150%">
      <feDropShadow dx="0" dy="26" stdDeviation="30" flood-color="#000000" flood-opacity="0.55"/>
    </filter>
    <pattern id="grid" width="60" height="60" patternUnits="userSpaceOnUse">
      <path d="M60 0 L0 0 0 60" fill="none" stroke="#1e90ff" stroke-opacity="0.05" stroke-width="1"/>
    </pattern>
  </defs>
  
  <rect width="900" height="1200" fill="url(#bg)"/>
  <rect width="900" height="1200" fill="url(#grid)"/>
  <rect width="900" height="1200" fill="url(#glow)"/>
  <ellipse cx="450" cy="1085" rx="290" ry="46" fill="#000000" opacity="0.5"/>
  <g transform="translate(450 600) rotate(-7) scale(0.9) translate(-450 -600)">
  <g filter="url(#soft)">
    <rect x="252" y="480" width="396" height="392" rx="52" fill="#b89135"/>
    <rect x="252" y="480" width="396" height="392" rx="52" fill="url(#sheen)"/>
    <rect x="228" y="418" width="444" height="98" rx="42" fill="#d9b55f"/>
    <rect x="228" y="418" width="444" height="98" rx="42" fill="url(#sheen)"/>
    <circle cx="332" cy="466" r="30" fill="rgba(0,0,0,0.45)"/>
    <rect x="418" y="440" width="58" height="54" rx="8" fill="rgba(0,0,0,0.45)"/>
    <path d="M572 442 l34 54 h-68 Z" fill="rgba(0,0,0,0.45)"/>
    <rect x="300" y="588" width="300" height="216" rx="26" fill="rgba(0,0,0,0.22)"/>
  </g>
  <g filter="url(#soft)">
    <circle cx="248" cy="946" r="58" fill="#d1a53c"/>
    <rect x="368" y="890" width="112" height="112" rx="16" fill="#2f7d80"/>
    <path d="M604 886 l64 110 h-128 Z" fill="#e3b5bd"/>
  </g></g>
</svg>