<svg xmlns="http://www.w3.org/2000/svg" viewBox="0 0 900 1200" width="900" height="1200" role="img" aria-label="Wooden Learning Blocks Set">
  
  <defs>
    <linearGradient id="bg" x1="0" y1="0" x2="0.6" y2="1">
      <stop offset="0%" stop-color="#101826"/>
      <stop offset="100%" stop-color="#070b12"/>
    </linearGradient>
    <radialGradient id="glow" cx="50%" cy="30%" r="62%">
      <stop offset="0%" stop-color="#1e90ff" stop-opacity="0.30"/>
      <stop offset="55%" stop-color="#1e90ff" stop-opacity="0.07"/>
      <stop offset="100%" stop-color="#1e90ff" stop-opacity="0"/>
    </radialGradient>
    <linearGradient id="cloth" x1="0.15" y1="0" x2="0.85" y2="1">
      <stop offset="0%" stop-color="#54abff"/>
      <stop offset="46%" stop-color="#1e90ff"/>
      <stop offset="100%" stop-color="#135ca3"/>
    </linearGradient>
    <linearGradient id="clothAlt" x1="0" y1="0" x2="1" y2="0.4">
      <stop offset="0%" stop-color="#1976d1"/>
      <stop offset="100%" stop-color="#359bff"/>
    </linearGradient>
    <linearGradient id="sheen" x1="0" y1="0" x2="1" y2="1">
      <stop offset="0%" stop-color="#ffffff" stop-opacity="0.16"/>
      <stop offset="45%" stop-color="#ffffff" stop-opacity="0.02"/>
      <stop offset="100%" stop-color="#000000" stop-opacity="0.16"/>
    </linearGradient>
    <filter id="soft" x="-25%" y="-25%" width="150%" height="150%">
      <feDropShadow dx="0" dy="26" stdDeviation="30" flood-color="#000000" flood-opacity="0.55"/>
    </filter>
    <pattern id="grid" width="60" height="60" patternUnits="userSpaceOnUse">
      <path d="M60 0 L0 0 0 60" fill="none" stroke="#1e90ff" stroke-opacity="0.05" stroke-width="1"/>
    </pattern>
  </defs>
  
  <rect width="900" height="1200" fill="url(#bg)"/>
  <rect width="900" height="1200" fill="url(#grid)"/>
  <rect width="900" height="1200" fill="url(#glow)"/>
  <ellipse cx="450" cy="1085" rx="290" ry="46" fill="#000000" opacity="0.5"/>
  <g transform="translate(450 600) rotate(-7) scale(0.9) translate(-450 -600)">
      <g filter="url(#soft)">
        <rect x="160" y="336" width="184" height="184" rx="26" fill="#1e90ff"/>
        <rect x="160" y="336" width="184" height="184" rx="26" fill="url(#sheen)"/>
        <text x="252" y="462" font-family="Georgia, serif" font-size="104" font-weight="700"
          text-anchor="middle" fill="#0d4173">A</text>
      </g>
      <g filter="url(#soft)">
        <rect x="358" y="264" width="184" height="184" rx="26" fill="#d1a53c"/>
        <rect x="358" y="264" width="184" height="184" rx="26" fill="url(#sheen)"/>
        <text x="450" y="390" font-family="Georgia, serif" font-size="104" font-weight="700"
          text-anchor="middle" fill="#5e4a1b">B</text>
      </g>
      <g filter="url(#soft)">
        <rect x="556" y="336" width="184" height="184" rx="26" fill="#2f7d80"/>
        <rect x="556" y="336" width="184" height="184" rx="26" fill="url(#sheen)"/>
        <text x="648" y="462" font-family="Georgia, serif" font-size="104" font-weight="700"
          text-anchor="middle" fill="#15383a">1</text>
      </g>
      <g filter="url(#soft)">
        <rect x="160" y="564" width="184" height="184" rx="26" fill="#e3b5bd"/>
        <rect x="160" y="564" width="184" height="184" rx="26" fill="url(#sheen)"/>
        <text x="252" y="690" font-family="Georgia, serif" font-size="104" font-weight="700"
          text-anchor="middle" fill="#665155">2</text>
      </g>
      <g filter="url(#soft)">
        <rect x="358" y="492" width="184" height="184" rx="26" fill="#4dabff"/>
        <rect x="358" y="492" width="184" height="184" rx="26" fill="url(#sheen)"/>
        <text x="450" y="618" font-family="Georgia, serif" font-size="104" font-weight="700"
          text-anchor="middle" fill="#234d73">C</text>
      </g>
      <g filter="url(#soft)">
        <rect x="556" y="564" width="184" height="184" rx="26" fill="#a9d6c4"/>
        <rect x="556" y="564" width="184" height="184" rx="26" fill="url(#sheen)"/>
        <text x="648" y="690" font-family="Georgia, serif" font-size="104" font-weight="700"
          text-anchor="middle" fill="#4c6058">3</text>
      </g>
  <g filter="url(#soft)">
    <path d="M188 812 h524 l-34 172 h-456 Z" fill="#836537"/>
    <path d="M188 812 h524 l-34 172 h-456 Z" fill="url(#sheen)"/>
    <rect x="188" y="790" width="524" height="34" rx="10" fill="#9f855d"/>
    <path d="M232 852 h436 l-10 56 h-416 Z" fill="rgba(0,0,0,0.28)"/>
  </g></g>
</svg>