<svg xmlns="http://www.w3.org/2000/svg" viewBox="0 0 900 700" width="900" height="700" role="img" aria-label="Kids">
  
  <defs>
    <linearGradient id="bg" x1="0" y1="0" x2="0.6" y2="1">
      <stop offset="0%" stop-color="#0b1119"/>
      <stop offset="100%" stop-color="#05080d"/>
    </linearGradient>
    <radialGradient id="glow" cx="50%" cy="60%" r="62%">
      <stop offset="0%" stop-color="#1e90ff" stop-opacity="0.30"/>
      <stop offset="55%" stop-color="#1e90ff" stop-opacity="0.07"/>
      <stop offset="100%" stop-color="#1e90ff" stop-opacity="0"/>
    </radialGradient>
    <linearGradient id="cloth" x1="0.15" y1="0" x2="0.85" y2="1">
      <stop offset="0%" stop-color="#dcbb6b"/>
      <stop offset="46%" stop-color="#d1a53c"/>
      <stop offset="100%" stop-color="#866a26"/>
    </linearGradient>
    <linearGradient id="clothAlt" x1="0" y1="0" x2="1" y2="0.4">
      <stop offset="0%" stop-color="#ab8731"/>
      <stop offset="100%" stop-color="#d6ae50"/>
    </linearGradient>
    <linearGradient id="sheen" x1="0" y1="0" x2="1" y2="1">
      <stop offset="0%" stop-color="#ffffff" stop-opacity="0.16"/>
      <stop offset="45%" stop-color="#ffffff" stop-opacity="0.02"/>
      <stop offset="100%" stop-color="#000000" stop-opacity="0.16"/>
    </linearGradient>
    <filter id="soft" x="-25%" y="-25%" width="150%" height="150%">
      <feDropShadow dx="0" dy="26" stdDeviation="30" flood-color="#000000" flood-opacity="0.55"/>
    </filter>
    <pattern id="grid" width="60" height="60" patternUnits="userSpaceOnUse">
      <path d="M60 0 L0 0 0 60" fill="none" stroke="#1e90ff" stroke-opacity="0.05" stroke-width="1"/>
    </pattern>
  </defs>
  <rect width="900" height="700" fill="url(#bg)"/>
  <rect width="900" height="700" fill="url(#grid)"/>
  <rect width="900" height="700" fill="url(#glow)"/>
  <g transform="translate(450 320) scale(0.62) translate(-450 -600)">
  <g filter="url(#soft)">
    <path d="M372 320 L308 332 L258 404 L300 476 L360 442 L354 660 L404 726 L496 726 L546 660 L540 442 L600 476 L642 404 L592 332 L528 320 Q450 372 372 320 Z"
      fill="url(#cloth)" stroke="rgba(255,255,255,0.16)" stroke-width="3" stroke-linejoin="round"/>
    <path d="M372 320 L308 332 L258 404 L300 476 L360 442 L354 660 L404 726 L496 726 L546 660 L540 442 L600 476 L642 404 L592 332 L528 320 Q450 372 372 320 Z"
      fill="url(#sheen)"/>
    <path d="M372 320 Q450 380 528 320 Q450 344 372 320 Z" fill="url(#clothAlt)" stroke="rgba(255,255,255,0.16)" stroke-width="3" stroke-linejoin="round"/>
    <path d="M366 676 Q450 706 534 676" fill="none" stroke="rgba(0,0,0,0.25)" stroke-width="5"/>
    <circle cx="402" cy="700" r="9" fill="rgba(255,255,255,0.6)"/><circle cx="450" cy="700" r="9" fill="rgba(255,255,255,0.6)"/><circle cx="498" cy="700" r="9" fill="rgba(255,255,255,0.6)"/>
    <circle cx="450" cy="470" r="34" fill="rgba(255,255,255,0.10)"/>
    <path d="M430 470 q20 -22 40 0 q-20 26 -40 0 Z" fill="rgba(255,255,255,0.35)"/>
  </g></g>
  <text x="450" y="636" font-family="Verdana, Geneva, sans-serif" font-size="46" font-weight="700"
    letter-spacing="6" text-anchor="middle" fill="#ffffff" opacity="0.92">KIDS</text>
</svg>